<svg width="112" height="49" viewBox="0 0 112 49" fill="none" xmlns="http://www.w3.org/2000/svg">
<path d="M1.62598 6.67188H10.0195C11.6602 6.67188 13.0859 6.91602 14.2969 7.4043C15.5078 7.89258 16.4404 8.61523 17.0947 9.57227C17.7588 10.5293 18.0908 11.7109 18.0908 13.1172C18.0908 14.3379 17.9004 15.3584 17.5195 16.1787C17.1387 16.999 16.6064 17.6777 15.9229 18.2148C15.249 18.7422 14.4629 19.1768 13.5645 19.5186L11.8799 20.4707H4.83398L4.80469 16.501H10.0195C10.6738 16.501 11.2158 16.3838 11.6455 16.1494C12.0752 15.915 12.3975 15.583 12.6123 15.1533C12.8369 14.7139 12.9492 14.1914 12.9492 13.5859C12.9492 12.9707 12.8369 12.4434 12.6123 12.0039C12.3877 11.5645 12.0557 11.2275 11.6162 10.9932C11.1865 10.7588 10.6543 10.6416 10.0195 10.6416H6.76758V28H1.62598V6.67188ZM13.3008 28L8.58398 18.5664L14.0332 18.5371L18.8086 27.7803V28H13.3008ZM26.5377 28.293C25.2486 28.293 24.0963 28.0928 23.0807 27.6924C22.065 27.2822 21.2057 26.7207 20.5025 26.0078C19.8092 25.2949 19.277 24.4746 18.9059 23.5469C18.5445 22.6191 18.3639 21.6377 18.3639 20.6025V20.0459C18.3639 18.8838 18.525 17.8096 18.8473 16.8232C19.1695 15.8271 19.648 14.958 20.2828 14.2158C20.9176 13.4736 21.7135 12.8975 22.6705 12.4873C23.6275 12.0674 24.7408 11.8574 26.0104 11.8574C27.1334 11.8574 28.1393 12.0381 29.0279 12.3994C29.9166 12.7607 30.6686 13.2783 31.2838 13.9521C31.9088 14.626 32.3824 15.4414 32.7047 16.3984C33.0367 17.3555 33.2027 18.4297 33.2027 19.6211V21.6279H20.2535V18.5371H28.3834V18.1562C28.3932 17.6289 28.3004 17.1797 28.1051 16.8086C27.9195 16.4375 27.6461 16.1543 27.2848 15.959C26.9234 15.7637 26.484 15.666 25.9664 15.666C25.4293 15.666 24.985 15.7832 24.6334 16.0176C24.2916 16.252 24.023 16.5742 23.8277 16.9844C23.6422 17.3848 23.5104 17.8486 23.4322 18.376C23.3541 18.9033 23.315 19.46 23.315 20.0459V20.6025C23.315 21.1885 23.3932 21.7207 23.5494 22.1992C23.7154 22.6777 23.9498 23.0879 24.2525 23.4297C24.565 23.7617 24.9361 24.0205 25.3658 24.2061C25.8053 24.3916 26.3033 24.4844 26.86 24.4844C27.5338 24.4844 28.1979 24.3574 28.8521 24.1035C29.5064 23.8496 30.068 23.4297 30.5367 22.8438L32.7779 25.5098C32.4557 25.9688 31.9967 26.4131 31.401 26.8428C30.815 27.2725 30.1119 27.624 29.2916 27.8975C28.4713 28.1611 27.5533 28.293 26.5377 28.293ZM38.09 15.1973V34.0938H33.1535V12.1504H37.7531L38.09 15.1973ZM47.8166 19.8848V20.1924C47.8166 21.3447 47.6848 22.4141 47.4211 23.4004C47.1574 24.3867 46.7668 25.2461 46.2492 25.9785C45.7316 26.7109 45.0871 27.2822 44.3156 27.6924C43.5539 28.0928 42.6701 28.293 41.6643 28.293C40.717 28.293 39.9016 28.083 39.218 27.6631C38.5344 27.2432 37.9631 26.6621 37.5041 25.9199C37.0451 25.1777 36.674 24.3281 36.3908 23.3711C36.1076 22.4141 35.883 21.4033 35.717 20.3389V19.9434C35.883 18.8008 36.1076 17.7412 36.3908 16.7646C36.674 15.7783 37.0451 14.9189 37.5041 14.1865C37.9631 13.4541 38.5295 12.8828 39.2033 12.4727C39.8869 12.0625 40.7023 11.8574 41.6496 11.8574C42.6555 11.8574 43.5393 12.0479 44.301 12.4287C45.0725 12.8096 45.717 13.3564 46.2346 14.0693C46.7619 14.7725 47.1574 15.6172 47.4211 16.6035C47.6848 17.5898 47.8166 18.6836 47.8166 19.8848ZM42.8801 20.1924V19.8848C42.8801 19.2695 42.8361 18.708 42.7482 18.2002C42.6604 17.6826 42.5187 17.2334 42.3234 16.8525C42.1379 16.4717 41.8889 16.1787 41.5764 15.9736C41.2639 15.7686 40.8781 15.666 40.4191 15.666C39.8918 15.666 39.4475 15.749 39.0861 15.915C38.7346 16.0713 38.4514 16.3154 38.2365 16.6475C38.0314 16.9697 37.885 17.375 37.7971 17.8633C37.7189 18.3418 37.6848 18.9033 37.6945 19.5479V20.749C37.675 21.4912 37.7482 22.1455 37.9143 22.7119C38.0803 23.2686 38.3684 23.7031 38.7785 24.0156C39.1887 24.3281 39.7453 24.4844 40.4484 24.4844C40.9172 24.4844 41.3078 24.377 41.6203 24.1621C41.9328 23.9375 42.1818 23.6299 42.3674 23.2393C42.5529 22.8389 42.6848 22.3799 42.7629 21.8623C42.841 21.3447 42.8801 20.7881 42.8801 20.1924ZM47.2986 20.2363V19.9287C47.2986 18.7666 47.4646 17.6973 47.7967 16.7207C48.1287 15.7344 48.617 14.8799 49.2615 14.1572C49.9061 13.4346 50.702 12.873 51.6492 12.4727C52.5965 12.0625 53.6902 11.8574 54.9305 11.8574C56.1805 11.8574 57.2791 12.0625 58.2264 12.4727C59.1834 12.873 59.9842 13.4346 60.6287 14.1572C61.2732 14.8799 61.7615 15.7344 62.0936 16.7207C62.4256 17.6973 62.5916 18.7666 62.5916 19.9287V20.2363C62.5916 21.3887 62.4256 22.458 62.0936 23.4443C61.7615 24.4209 61.2732 25.2754 60.6287 26.0078C59.9842 26.7305 59.1883 27.292 58.241 27.6924C57.2938 28.0928 56.2 28.293 54.9598 28.293C53.7195 28.293 52.6209 28.0928 51.6639 27.6924C50.7068 27.292 49.9061 26.7305 49.2615 26.0078C48.617 25.2754 48.1287 24.4209 47.7967 23.4443C47.4646 22.458 47.2986 21.3887 47.2986 20.2363ZM52.2352 19.9287V20.2363C52.2352 20.832 52.2791 21.3887 52.367 21.9062C52.4549 22.4238 52.6014 22.8779 52.8064 23.2686C53.0115 23.6494 53.2898 23.9473 53.6414 24.1621C53.993 24.377 54.4324 24.4844 54.9598 24.4844C55.4773 24.4844 55.907 24.377 56.2488 24.1621C56.6004 23.9473 56.8787 23.6494 57.0838 23.2686C57.2889 22.8779 57.4354 22.4238 57.5232 21.9062C57.6111 21.3887 57.6551 20.832 57.6551 20.2363V19.9287C57.6551 19.3525 57.6111 18.8105 57.5232 18.3027C57.4354 17.7852 57.2889 17.3311 57.0838 16.9404C56.8787 16.54 56.6004 16.2275 56.2488 16.0029C55.8973 15.7783 55.4578 15.666 54.9305 15.666C54.4129 15.666 53.9783 15.7783 53.6268 16.0029C53.285 16.2275 53.0115 16.54 52.8064 16.9404C52.6014 17.3311 52.4549 17.7852 52.367 18.3027C52.2791 18.8105 52.2352 19.3525 52.2352 19.9287ZM78.348 16.2373V17.7754H65.3842V16.2373H78.348ZM65.809 6.67188V28H64.0072V6.67188H65.809ZM79.7982 6.67188V28H77.9965V6.67188H79.7982ZM92.8887 24.3379V12.1504H94.6465V28H92.9619L92.8887 24.3379ZM93.2109 21.4082L94.1191 21.3789C94.1191 22.375 94.002 23.293 93.7676 24.1328C93.5332 24.9727 93.167 25.7051 92.6689 26.3301C92.1709 26.9551 91.5264 27.4385 90.7354 27.7803C89.9443 28.1221 88.9922 28.293 87.8789 28.293C87.1074 28.293 86.3994 28.1855 85.7549 27.9707C85.1201 27.7461 84.5732 27.3945 84.1143 26.916C83.6553 26.4375 83.2988 25.8174 83.0449 25.0557C82.8008 24.2939 82.6787 23.3711 82.6787 22.2871V12.1504H84.4219V22.3164C84.4219 23.166 84.5146 23.874 84.7002 24.4404C84.8955 25.0068 85.1592 25.4609 85.4912 25.8027C85.833 26.1445 86.2236 26.3887 86.6631 26.5352C87.1025 26.6816 87.5762 26.7549 88.084 26.7549C89.373 26.7549 90.3887 26.5059 91.1309 26.0078C91.8828 25.5098 92.415 24.8555 92.7275 24.0449C93.0498 23.2246 93.2109 22.3457 93.2109 21.4082ZM97.1021 5.5H98.86V24.9238L98.7428 28H97.1021V5.5ZM109.89 19.9287V20.2363C109.89 21.418 109.754 22.502 109.48 23.4883C109.207 24.4746 108.811 25.3291 108.294 26.0518C107.776 26.7646 107.141 27.3164 106.389 27.707C105.647 28.0977 104.793 28.293 103.826 28.293C102.879 28.293 102.039 28.1465 101.306 27.8535C100.574 27.5508 99.9488 27.126 99.4313 26.5791C98.9137 26.0225 98.4986 25.373 98.1861 24.6309C97.8736 23.8789 97.6539 23.0537 97.527 22.1553V18.2441C97.6734 17.2871 97.9078 16.418 98.2301 15.6367C98.5523 14.8555 98.9674 14.1816 99.4752 13.6152C99.9928 13.0488 100.608 12.6143 101.321 12.3115C102.044 12.0088 102.869 11.8574 103.796 11.8574C104.763 11.8574 105.623 12.0479 106.375 12.4287C107.136 12.7998 107.776 13.3418 108.294 14.0547C108.811 14.7578 109.207 15.6074 109.48 16.6035C109.754 17.5898 109.89 18.6982 109.89 19.9287ZM108.118 20.2363V19.9287C108.118 19.001 108.03 18.1416 107.854 17.3506C107.678 16.5596 107.4 15.8711 107.019 15.2852C106.648 14.6895 106.17 14.2256 105.584 13.8936C104.998 13.5615 104.295 13.3955 103.474 13.3955C102.634 13.3955 101.917 13.5371 101.321 13.8203C100.735 14.0938 100.247 14.46 99.8561 14.9189C99.4752 15.3682 99.1725 15.8613 98.9479 16.3984C98.7232 16.9355 98.5572 17.4629 98.4498 17.9805V22.5361C98.6158 23.2686 98.9039 23.957 99.3141 24.6016C99.7242 25.2461 100.276 25.7686 100.969 26.1689C101.663 26.5596 102.507 26.7549 103.504 26.7549C104.304 26.7549 104.993 26.5889 105.569 26.2568C106.155 25.9248 106.633 25.4658 107.004 24.8799C107.385 24.2939 107.664 23.6055 107.839 22.8145C108.025 22.0234 108.118 21.1641 108.118 20.2363Z" fill="white"/>
<path d="M3.2373 39.3154L0.776367 46H0.151367L2.83691 38.8906H3.27148L3.2373 39.3154ZM5.47363 46L3.00781 39.3154L2.97363 38.8906H3.4082L6.09863 46H5.47363ZM5.03418 43.4902V44.0078H1.25977V43.4902H5.03418ZM17.6182 44.252C17.6182 44.0566 17.5856 43.8825 17.5205 43.7295C17.4554 43.5765 17.348 43.4398 17.1982 43.3193C17.0518 43.1956 16.8532 43.0817 16.6025 42.9775C16.3551 42.8701 16.0459 42.7643 15.6748 42.6602C15.32 42.5592 14.9993 42.4486 14.7129 42.3281C14.4264 42.2077 14.1807 42.0693 13.9756 41.9131C13.7738 41.7568 13.6191 41.5745 13.5117 41.3662C13.4043 41.1546 13.3506 40.9089 13.3506 40.6289C13.3506 40.3555 13.4092 40.1064 13.5264 39.8818C13.6436 39.6572 13.8079 39.4635 14.0195 39.3008C14.2344 39.138 14.4867 39.0127 14.7764 38.9248C15.0693 38.8369 15.39 38.793 15.7383 38.793C16.2363 38.793 16.666 38.8874 17.0273 39.0762C17.3919 39.265 17.6735 39.5205 17.8721 39.8428C18.0739 40.1618 18.1748 40.5199 18.1748 40.917H17.5742C17.5742 40.6077 17.501 40.3327 17.3545 40.0918C17.2113 39.8477 17.0029 39.6572 16.7295 39.5205C16.4593 39.3805 16.1289 39.3105 15.7383 39.3105C15.3477 39.3105 15.0189 39.3708 14.752 39.4912C14.4883 39.6084 14.2881 39.7663 14.1514 39.9648C14.0179 40.1602 13.9512 40.3783 13.9512 40.6191C13.9512 40.7884 13.9837 40.9447 14.0488 41.0879C14.1139 41.2279 14.2197 41.3597 14.3662 41.4834C14.516 41.6038 14.7129 41.7178 14.957 41.8252C15.2012 41.9294 15.5023 42.0286 15.8604 42.123C16.238 42.2272 16.5732 42.3428 16.8662 42.4697C17.1592 42.5967 17.4066 42.7432 17.6084 42.9092C17.8102 43.0719 17.9632 43.2624 18.0674 43.4805C18.1715 43.6986 18.2236 43.9525 18.2236 44.2422C18.2236 44.5319 18.1618 44.7923 18.0381 45.0234C17.9176 45.2513 17.7467 45.445 17.5254 45.6045C17.3073 45.764 17.0485 45.8861 16.749 45.9707C16.4528 46.0553 16.1289 46.0977 15.7773 46.0977C15.4616 46.0977 15.1475 46.057 14.835 45.9756C14.5225 45.8942 14.236 45.7689 13.9756 45.5996C13.7184 45.4271 13.5117 45.2057 13.3555 44.9355C13.2025 44.6654 13.126 44.3431 13.126 43.9688H13.7217C13.7217 44.2682 13.7819 44.5205 13.9023 44.7256C14.0228 44.9307 14.1823 45.0967 14.3809 45.2236C14.5827 45.3506 14.804 45.4434 15.0449 45.502C15.2891 45.5573 15.5332 45.585 15.7773 45.585C16.1517 45.585 16.4756 45.5296 16.749 45.4189C17.0257 45.3083 17.2389 45.1536 17.3887 44.9551C17.5417 44.7533 17.6182 44.5189 17.6182 44.252ZM22.2549 38.8906V46H21.6543V38.8906H22.2549ZM26.374 38.8906H26.9795L29.6064 45.1504L32.2383 38.8906H32.8389L29.8359 46H29.377L26.374 38.8906ZM26.1885 38.8906H26.7207L26.7842 42.8945V46H26.1885V38.8906ZM32.502 38.8906H33.0342V46H32.4336V42.8945L32.502 38.8906ZM39.2578 43.1045H37.2314V42.5918H39.2578C39.681 42.5918 40.0244 42.5234 40.2881 42.3867C40.555 42.2467 40.7487 42.0579 40.8691 41.8203C40.9928 41.5827 41.0547 41.3158 41.0547 41.0195C41.0547 40.7298 40.9928 40.4629 40.8691 40.2188C40.7487 39.9746 40.555 39.7793 40.2881 39.6328C40.0244 39.4831 39.681 39.4082 39.2578 39.4082H37.4414V46H36.8408V38.8906H39.2578C39.7786 38.8906 40.2165 38.9801 40.5713 39.1592C40.9294 39.3382 41.1995 39.5872 41.3818 39.9062C41.5641 40.2253 41.6553 40.5931 41.6553 41.0098C41.6553 41.446 41.5641 41.8219 41.3818 42.1377C41.1995 42.4502 40.931 42.6895 40.5762 42.8555C40.2214 43.0215 39.7819 43.1045 39.2578 43.1045ZM49.1143 45.4873V46H45.4277V45.4873H49.1143ZM45.6035 38.8906V46H45.0029V38.8906H45.6035ZM56.6953 45.4873V46H52.6963V45.4873H56.6953ZM52.877 38.8906V46H52.2764V38.8906H52.877ZM56.1973 42.0791V42.5918H52.6963V42.0791H56.1973ZM56.6709 38.8906V39.4082H52.6963V38.8906H56.6709ZM68.4346 44.252C68.4346 44.0566 68.402 43.8825 68.3369 43.7295C68.2718 43.5765 68.1644 43.4398 68.0146 43.3193C67.8682 43.1956 67.6696 43.0817 67.4189 42.9775C67.1715 42.8701 66.8623 42.7643 66.4912 42.6602C66.1364 42.5592 65.8158 42.4486 65.5293 42.3281C65.2428 42.2077 64.9971 42.0693 64.792 41.9131C64.5902 41.7568 64.4355 41.5745 64.3281 41.3662C64.2207 41.1546 64.167 40.9089 64.167 40.6289C64.167 40.3555 64.2256 40.1064 64.3428 39.8818C64.46 39.6572 64.6243 39.4635 64.8359 39.3008C65.0508 39.138 65.3031 39.0127 65.5928 38.9248C65.8857 38.8369 66.2064 38.793 66.5547 38.793C67.0527 38.793 67.4824 38.8874 67.8438 39.0762C68.2083 39.265 68.4899 39.5205 68.6885 39.8428C68.8903 40.1618 68.9912 40.5199 68.9912 40.917H68.3906C68.3906 40.6077 68.3174 40.3327 68.1709 40.0918C68.0277 39.8477 67.8193 39.6572 67.5459 39.5205C67.2757 39.3805 66.9453 39.3105 66.5547 39.3105C66.1641 39.3105 65.8353 39.3708 65.5684 39.4912C65.3047 39.6084 65.1045 39.7663 64.9678 39.9648C64.8343 40.1602 64.7676 40.3783 64.7676 40.6191C64.7676 40.7884 64.8001 40.9447 64.8652 41.0879C64.9303 41.2279 65.0361 41.3597 65.1826 41.4834C65.3324 41.6038 65.5293 41.7178 65.7734 41.8252C66.0176 41.9294 66.3187 42.0286 66.6768 42.123C67.0544 42.2272 67.3896 42.3428 67.6826 42.4697C67.9756 42.5967 68.223 42.7432 68.4248 42.9092C68.6266 43.0719 68.7796 43.2624 68.8838 43.4805C68.988 43.6986 69.04 43.9525 69.04 44.2422C69.04 44.5319 68.9782 44.7923 68.8545 45.0234C68.734 45.2513 68.5632 45.445 68.3418 45.6045C68.1237 45.764 67.8649 45.8861 67.5654 45.9707C67.2692 46.0553 66.9453 46.0977 66.5938 46.0977C66.278 46.0977 65.9639 46.057 65.6514 45.9756C65.3389 45.8942 65.0524 45.7689 64.792 45.5996C64.5348 45.4271 64.3281 45.2057 64.1719 44.9355C64.0189 44.6654 63.9424 44.3431 63.9424 43.9688H64.5381C64.5381 44.2682 64.5983 44.5205 64.7188 44.7256C64.8392 44.9307 64.9987 45.0967 65.1973 45.2236C65.3991 45.3506 65.6204 45.4434 65.8613 45.502C66.1055 45.5573 66.3496 45.585 66.5938 45.585C66.9681 45.585 67.292 45.5296 67.5654 45.4189C67.8421 45.3083 68.0553 45.1536 68.2051 44.9551C68.3581 44.7533 68.4346 44.5189 68.4346 44.252ZM76.7578 45.4873V46H72.7588V45.4873H76.7578ZM72.9395 38.8906V46H72.3389V38.8906H72.9395ZM76.2598 42.0791V42.5918H72.7588V42.0791H76.2598ZM76.7334 38.8906V39.4082H72.7588V38.8906H76.7334ZM82.3662 39.3154L79.9053 46H79.2803L81.9658 38.8906H82.4004L82.3662 39.3154ZM84.6025 46L82.1367 39.3154L82.1025 38.8906H82.5371L85.2275 46H84.6025ZM84.1631 43.4902V44.0078H80.3887V43.4902H84.1631ZM88.2676 38.8906H90.5771C91.0687 38.8906 91.4951 38.9704 91.8564 39.1299C92.2178 39.2894 92.4961 39.5254 92.6914 39.8379C92.89 40.1471 92.9893 40.528 92.9893 40.9805C92.9893 41.3158 92.9176 41.6201 92.7744 41.8936C92.6344 42.167 92.4408 42.3965 92.1934 42.582C91.946 42.7643 91.6595 42.8896 91.334 42.958L91.124 43.0361H88.6582L88.6484 42.5234H90.7139C91.085 42.5234 91.3942 42.4518 91.6416 42.3086C91.889 42.1654 92.0745 41.9766 92.1982 41.7422C92.3252 41.5046 92.3887 41.2507 92.3887 40.9805C92.3887 40.6582 92.3187 40.3799 92.1787 40.1455C92.042 39.9079 91.8385 39.7256 91.5684 39.5986C91.2982 39.4717 90.9678 39.4082 90.5771 39.4082H88.8682V46H88.2676V38.8906ZM92.6572 46L90.8164 42.8213L91.4609 42.8164L93.2969 45.9365V46H92.6572ZM101.068 43.7832H101.669C101.62 44.2617 101.488 44.6751 101.273 45.0234C101.059 45.3685 100.766 45.6338 100.395 45.8193C100.023 46.0049 99.5758 46.0977 99.0518 46.0977C98.6481 46.0977 98.2819 46.0212 97.9531 45.8682C97.6276 45.7152 97.3477 45.4987 97.1133 45.2188C96.8789 44.9355 96.6982 44.597 96.5713 44.2031C96.4443 43.8092 96.3809 43.3714 96.3809 42.8896V42.001C96.3809 41.5192 96.4443 41.083 96.5713 40.6924C96.6982 40.2985 96.8805 39.96 97.1182 39.6768C97.3558 39.3936 97.6406 39.1755 97.9727 39.0225C98.3047 38.8695 98.679 38.793 99.0957 38.793C99.6003 38.793 100.036 38.8857 100.404 39.0713C100.772 39.2536 101.062 39.5173 101.273 39.8623C101.488 40.2074 101.62 40.624 101.669 41.1123H101.068C101.023 40.7282 100.922 40.4027 100.766 40.1357C100.609 39.8688 100.393 39.6654 100.116 39.5254C99.8428 39.3822 99.5026 39.3105 99.0957 39.3105C98.7637 39.3105 98.4674 39.374 98.207 39.501C97.9466 39.6279 97.7253 39.8102 97.543 40.0479C97.3607 40.2822 97.2207 40.5638 97.123 40.8926C97.0286 41.2214 96.9814 41.5876 96.9814 41.9912V42.8896C96.9814 43.2803 97.027 43.64 97.1182 43.9688C97.2093 44.2975 97.3428 44.5824 97.5186 44.8232C97.6976 45.0641 97.9157 45.2513 98.1729 45.3848C98.43 45.5182 98.723 45.585 99.0518 45.585C99.4717 45.585 99.8216 45.5182 100.102 45.3848C100.385 45.248 100.604 45.0462 100.761 44.7793C100.917 44.5124 101.02 44.1803 101.068 43.7832ZM109.914 42.0791V42.5918H105.593V42.0791H109.914ZM105.734 38.8906V46H105.134V38.8906H105.734ZM110.397 38.8906V46H109.797V38.8906H110.397Z" fill="white"/>
</svg>
